<mxfile host="65bd71144e">
    <diagram id="u_baxMAExRo-awtH1UQv" name="Page-1">
        <mxGraphModel dx="4182" dy="1916" grid="1" gridSize="10" guides="1" tooltips="1" connect="1" arrows="1" fold="1" page="1" pageScale="1" pageWidth="850" pageHeight="1100" math="0" shadow="0">
            <root>
                <mxCell id="0"/>
                <mxCell id="1" parent="0"/>
                <mxCell id="16" value="InstapayAccount" style="swimlane;fontStyle=0;align=center;verticalAlign=top;childLayout=stackLayout;horizontal=1;startSize=26;horizontalStack=0;resizeParent=1;resizeParentMax=0;resizeLast=0;collapsible=1;marginBottom=0;fontSize=12;rounded=0;" parent="1" vertex="1">
                    <mxGeometry x="-70" y="-21" width="250" height="250" as="geometry"/>
                </mxCell>
                <mxCell id="17" value="- provider:  Provider&#10;- userName: String&#10;- password: String&#10;- fullName: String" style="text;strokeColor=none;fillColor=none;align=left;verticalAlign=top;spacingLeft=4;spacingRight=4;overflow=hidden;rotatable=0;points=[[0,0.5],[1,0.5]];portConstraint=eastwest;fontSize=12;rounded=0;" parent="16" vertex="1">
                    <mxGeometry y="26" width="250" height="74" as="geometry"/>
                </mxCell>
                <mxCell id="18" value="" style="line;strokeWidth=1;fillColor=none;align=left;verticalAlign=middle;spacingTop=-1;spacingLeft=3;spacingRight=3;rotatable=0;labelPosition=right;points=[];portConstraint=eastwest;strokeColor=inherit;fontSize=12;rounded=0;" parent="16" vertex="1">
                    <mxGeometry y="100" width="250" height="8" as="geometry"/>
                </mxCell>
                <mxCell id="19" value="+ setUserName (userName: String ) : void&#10;+ setPassword (password: String ) : void&#10;+ setFullName (fullName: String ) : void&#10;+ getUserName ( ) : String&#10;+ getPassword ( ) : String&#10;+ getFullName ( ) : String &#10;+ getBalance ( ): void&#10;+ deductBalance (balance: Integer) : void&#10;+ addBalance (balance: Integer) : void &#10;" style="text;strokeColor=none;fillColor=none;align=left;verticalAlign=top;spacingLeft=4;spacingRight=4;overflow=hidden;rotatable=0;points=[[0,0.5],[1,0.5]];portConstraint=eastwest;fontSize=12;rounded=0;" parent="16" vertex="1">
                    <mxGeometry y="108" width="250" height="142" as="geometry"/>
                </mxCell>
                <mxCell id="38" value="&lt;&lt;abstract&gt;&gt;&#10;Provider" style="swimlane;fontStyle=2;align=center;verticalAlign=top;childLayout=stackLayout;horizontal=1;startSize=50;horizontalStack=0;resizeParent=1;resizeParentMax=0;resizeLast=0;collapsible=1;marginBottom=0;rounded=0;" parent="1" vertex="1">
                    <mxGeometry x="400" y="-40" width="290" height="208" as="geometry"/>
                </mxCell>
                <mxCell id="39" value="- name : String&#10;- balance: Integer&#10;- phoneNumber: String&#10;" style="text;strokeColor=none;fillColor=none;align=left;verticalAlign=top;spacingLeft=4;spacingRight=4;overflow=hidden;rotatable=0;points=[[0,0.5],[1,0.5]];portConstraint=eastwest;rounded=0;" parent="38" vertex="1">
                    <mxGeometry y="50" width="290" height="60" as="geometry"/>
                </mxCell>
                <mxCell id="40" value="" style="line;strokeWidth=1;fillColor=none;align=left;verticalAlign=middle;spacingTop=-1;spacingLeft=3;spacingRight=3;rotatable=0;labelPosition=right;points=[];portConstraint=eastwest;strokeColor=inherit;rounded=0;" parent="38" vertex="1">
                    <mxGeometry y="110" width="290" height="8" as="geometry"/>
                </mxCell>
                <mxCell id="41" value="+ abstract verify ( ) : void&#10;+ abstract getBalance ( ) : Integet&#10;+ abstract setBalance (balance: Integer) : void&#10;+ abstract addBalance (balance: Integer) : void&#10;+ abstract deductBalance (balance: Integer) : void" style="text;strokeColor=none;fillColor=none;align=left;verticalAlign=top;spacingLeft=4;spacingRight=4;overflow=hidden;rotatable=0;points=[[0,0.5],[1,0.5]];portConstraint=eastwest;rounded=0;" parent="38" vertex="1">
                    <mxGeometry y="118" width="290" height="90" as="geometry"/>
                </mxCell>
                <mxCell id="366" value="" style="edgeStyle=orthogonalEdgeStyle;html=1;dashed=1;dashPattern=8 8;fontSize=16;endArrow=open;endFill=0;" edge="1" parent="1" source="42" target="41">
                    <mxGeometry relative="1" as="geometry">
                        <Array as="points">
                            <mxPoint x="670" y="199"/>
                            <mxPoint x="545" y="199"/>
                        </Array>
                    </mxGeometry>
                </mxCell>
                <mxCell id="42" value="Wallet" style="swimlane;fontStyle=0;align=center;verticalAlign=top;childLayout=stackLayout;horizontal=1;startSize=26;horizontalStack=0;resizeParent=1;resizeParentMax=0;resizeLast=0;collapsible=1;marginBottom=0;rounded=0;" parent="1" vertex="1">
                    <mxGeometry x="560" y="229" width="220" height="126" as="geometry"/>
                </mxCell>
                <mxCell id="44" value="" style="line;strokeWidth=1;fillColor=none;align=left;verticalAlign=middle;spacingTop=-1;spacingLeft=3;spacingRight=3;rotatable=0;labelPosition=right;points=[];portConstraint=eastwest;strokeColor=inherit;rounded=0;" parent="42" vertex="1">
                    <mxGeometry y="26" width="220" height="8" as="geometry"/>
                </mxCell>
                <mxCell id="45" value="+ verify ( ) : void&#10;+ getBalance ( ) : Integer&#10;+ setBalance (balance: Integer) : void &#10;+ addBalance (balance: Integer) : void&#10;+ deductBalance ( ) : void" style="text;strokeColor=none;fillColor=none;align=left;verticalAlign=top;spacingLeft=4;spacingRight=4;overflow=hidden;rotatable=0;points=[[0,0.5],[1,0.5]];portConstraint=eastwest;rounded=0;" parent="42" vertex="1">
                    <mxGeometry y="34" width="220" height="92" as="geometry"/>
                </mxCell>
                <mxCell id="367" value="" style="edgeStyle=orthogonalEdgeStyle;html=1;dashed=1;dashPattern=8 8;fontSize=16;endArrow=open;endFill=0;entryX=0.507;entryY=1.004;entryDx=0;entryDy=0;entryPerimeter=0;" edge="1" parent="1" source="48" target="41">
                    <mxGeometry relative="1" as="geometry"/>
                </mxCell>
                <mxCell id="48" value="Bank" style="swimlane;fontStyle=0;align=center;verticalAlign=top;childLayout=stackLayout;horizontal=1;startSize=26;horizontalStack=0;resizeParent=1;resizeParentMax=0;resizeLast=0;collapsible=1;marginBottom=0;rounded=0;" parent="1" vertex="1">
                    <mxGeometry x="310" y="229" width="210" height="126" as="geometry"/>
                </mxCell>
                <mxCell id="50" value="" style="line;strokeWidth=1;fillColor=none;align=left;verticalAlign=middle;spacingTop=-1;spacingLeft=3;spacingRight=3;rotatable=0;labelPosition=right;points=[];portConstraint=eastwest;strokeColor=inherit;rounded=0;" parent="48" vertex="1">
                    <mxGeometry y="26" width="210" height="8" as="geometry"/>
                </mxCell>
                <mxCell id="51" value="+ verify ( ) : void&#10;+ getBalance ( ) : Integer&#10;+ setBalance (balance: Integer) : void &#10;+ addBalance (balance: Integer) : void&#10;+ deductBalance ( ) : void" style="text;strokeColor=none;fillColor=none;align=left;verticalAlign=top;spacingLeft=4;spacingRight=4;overflow=hidden;rotatable=0;points=[[0,0.5],[1,0.5]];portConstraint=eastwest;rounded=0;" parent="48" vertex="1">
                    <mxGeometry y="34" width="210" height="92" as="geometry"/>
                </mxCell>
                <mxCell id="61" value="Has" style="endArrow=diamondThin;endFill=0;endSize=24;html=1;exitX=0;exitY=0.5;exitDx=0;exitDy=0;rounded=0;" parent="1" source="39" target="17" edge="1">
                    <mxGeometry x="-0.0612" width="160" relative="1" as="geometry">
                        <mxPoint x="590" y="145" as="sourcePoint"/>
                        <mxPoint x="180" y="140" as="targetPoint"/>
                        <mxPoint as="offset"/>
                    </mxGeometry>
                </mxCell>
                <mxCell id="291" value="" style="edgeStyle=orthogonalEdgeStyle;html=1;fontSize=11;fontColor=#FFFFFF;endArrow=open;endFill=0;dashed=1;dashPattern=8 8;" parent="1" source="70" target="236" edge="1">
                    <mxGeometry relative="1" as="geometry">
                        <mxPoint x="-631.3800000000006" y="436.75" as="targetPoint"/>
                        <Array as="points">
                            <mxPoint x="-631" y="530"/>
                        </Array>
                    </mxGeometry>
                </mxCell>
                <mxCell id="70" value="Signup" style="swimlane;fontStyle=0;align=center;verticalAlign=top;childLayout=stackLayout;horizontal=1;startSize=26;horizontalStack=0;resizeParent=1;resizeParentMax=0;resizeLast=0;collapsible=1;marginBottom=0;rounded=0;" parent="1" vertex="1">
                    <mxGeometry x="-761.38" y="82" width="260" height="160" as="geometry"/>
                </mxCell>
                <mxCell id="71" value="- signupHandler : SignupHandler  " style="text;strokeColor=none;fillColor=none;align=left;verticalAlign=top;spacingLeft=4;spacingRight=4;overflow=hidden;rotatable=0;points=[[0,0.5],[1,0.5]];portConstraint=eastwest;rounded=0;" parent="70" vertex="1">
                    <mxGeometry y="26" width="260" height="26" as="geometry"/>
                </mxCell>
                <mxCell id="72" value="" style="line;strokeWidth=1;fillColor=none;align=left;verticalAlign=middle;spacingTop=-1;spacingLeft=3;spacingRight=3;rotatable=0;labelPosition=right;points=[];portConstraint=eastwest;strokeColor=inherit;rounded=0;" parent="70" vertex="1">
                    <mxGeometry y="52" width="260" height="8" as="geometry"/>
                </mxCell>
                <mxCell id="73" value="+ IsUniqueUserName(userName: String): bool&#10;+ IsValidPassword(password: String): bool&#10;+ otp(phoneNumber: String):  bool&#10;+ saveNewUser(InstapayAccount) : void&#10;+ register( ): void" style="text;strokeColor=none;fillColor=none;align=left;verticalAlign=top;spacingLeft=4;spacingRight=4;overflow=hidden;rotatable=0;points=[[0,0.5],[1,0.5]];portConstraint=eastwest;rounded=0;" parent="70" vertex="1">
                    <mxGeometry y="60" width="260" height="100" as="geometry"/>
                </mxCell>
                <mxCell id="76" value="&lt;p style=&quot;margin:0px;margin-top:4px;text-align:center;&quot;&gt;&lt;i&gt;&amp;lt;&amp;lt;Interface&amp;gt;&amp;gt;&lt;/i&gt;&lt;br&gt;&lt;i style=&quot;text-align: left;&quot;&gt;SignupHandler&lt;/i&gt;&lt;br&gt;&lt;/p&gt;&lt;hr size=&quot;1&quot;&gt;&lt;p style=&quot;margin:0px;margin-left:4px;&quot;&gt;&lt;/p&gt;&lt;span style=&quot;&quot;&gt;&amp;nbsp;+ verify (phoneNumber : String ) : bool&amp;nbsp;&lt;br&gt;&lt;br&gt;&lt;/span&gt;" style="verticalAlign=top;align=left;overflow=fill;fontSize=12;fontFamily=Helvetica;html=1;rounded=0;" parent="1" vertex="1">
                    <mxGeometry x="-1216.4" y="69.25" width="245" height="103.5" as="geometry"/>
                </mxCell>
                <mxCell id="256" value="" style="edgeStyle=orthogonalEdgeStyle;html=1;dashed=1;fontSize=9;endArrow=block;endFill=0;elbow=vertical;exitX=0.5;exitY=0;exitDx=0;exitDy=0;labelBackgroundColor=none;" parent="1" source="77" target="76" edge="1">
                    <mxGeometry relative="1" as="geometry">
                        <mxPoint x="-946.2984615384614" y="321.5" as="sourcePoint"/>
                    </mxGeometry>
                </mxCell>
                <mxCell id="77" value="WalletHandler" style="swimlane;fontStyle=0;align=center;verticalAlign=top;childLayout=stackLayout;horizontal=1;startSize=26;horizontalStack=0;resizeParent=1;resizeParentMax=0;resizeLast=0;collapsible=1;marginBottom=0;rounded=0;" parent="1" vertex="1">
                    <mxGeometry x="-1055.02" y="275" width="240" height="80" as="geometry"/>
                </mxCell>
                <mxCell id="79" value="" style="line;strokeWidth=1;fillColor=none;align=left;verticalAlign=middle;spacingTop=-1;spacingLeft=3;spacingRight=3;rotatable=0;labelPosition=right;points=[];portConstraint=eastwest;strokeColor=inherit;rounded=0;" parent="77" vertex="1">
                    <mxGeometry y="26" width="240" height="8" as="geometry"/>
                </mxCell>
                <mxCell id="80" value="+ verify (phoneNumber : String ) : bool " style="text;strokeColor=none;fillColor=none;align=left;verticalAlign=top;spacingLeft=4;spacingRight=4;overflow=hidden;rotatable=0;points=[[0,0.5],[1,0.5]];portConstraint=eastwest;rounded=0;" parent="77" vertex="1">
                    <mxGeometry y="34" width="240" height="46" as="geometry"/>
                </mxCell>
                <mxCell id="378" value="" style="edgeStyle=orthogonalEdgeStyle;html=1;dashed=1;dashPattern=8 8;fontSize=16;endArrow=open;endFill=0;" edge="1" parent="1" source="81" target="76">
                    <mxGeometry relative="1" as="geometry"/>
                </mxCell>
                <mxCell id="81" value="BankHandler" style="swimlane;fontStyle=0;align=center;verticalAlign=top;childLayout=stackLayout;horizontal=1;startSize=26;horizontalStack=0;resizeParent=1;resizeParentMax=0;resizeLast=0;collapsible=1;marginBottom=0;rounded=0;" parent="1" vertex="1">
                    <mxGeometry x="-1360" y="275" width="230" height="80" as="geometry"/>
                </mxCell>
                <mxCell id="83" value="" style="line;strokeWidth=1;fillColor=none;align=left;verticalAlign=middle;spacingTop=-1;spacingLeft=3;spacingRight=3;rotatable=0;labelPosition=right;points=[];portConstraint=eastwest;strokeColor=inherit;rounded=0;" parent="81" vertex="1">
                    <mxGeometry y="26" width="230" height="8" as="geometry"/>
                </mxCell>
                <mxCell id="84" value="+ verify (phoneNumber : String ) : bool " style="text;strokeColor=none;fillColor=none;align=left;verticalAlign=top;spacingLeft=4;spacingRight=4;overflow=hidden;rotatable=0;points=[[0,0.5],[1,0.5]];portConstraint=eastwest;rounded=0;" parent="81" vertex="1">
                    <mxGeometry y="34" width="230" height="46" as="geometry"/>
                </mxCell>
                <mxCell id="97" style="edgeStyle=orthogonalEdgeStyle;html=1;rounded=0;entryX=1;entryY=0.5;entryDx=0;entryDy=0;endArrow=open;endFill=0;dashed=1;dashPattern=8 8;" parent="1" source="17" target="71" edge="1">
                    <mxGeometry relative="1" as="geometry">
                        <Array as="points">
                            <mxPoint x="-210" y="121"/>
                        </Array>
                        <mxPoint x="-210" y="121" as="targetPoint"/>
                    </mxGeometry>
                </mxCell>
                <mxCell id="285" value="" style="edgeStyle=orthogonalEdgeStyle;html=1;fontSize=11;fontColor=#FFFFFF;entryX=-0.002;entryY=0.363;entryDx=0;entryDy=0;entryPerimeter=0;dashed=1;dashPattern=8 8;endArrow=open;endFill=0;" parent="1" source="108" target="236" edge="1">
                    <mxGeometry relative="1" as="geometry">
                        <mxPoint x="-1484.9999999999998" y="317.7499999999998" as="targetPoint"/>
                    </mxGeometry>
                </mxCell>
                <mxCell id="108" value="Login" style="swimlane;fontStyle=0;align=center;verticalAlign=top;childLayout=stackLayout;horizontal=1;startSize=26;horizontalStack=0;resizeParent=1;resizeParentMax=0;resizeLast=0;collapsible=1;marginBottom=0;rounded=0;" parent="1" vertex="1">
                    <mxGeometry x="-1729.9999999999998" y="69.25" width="310" height="86" as="geometry"/>
                </mxCell>
                <mxCell id="110" value="" style="line;strokeWidth=1;fillColor=none;align=left;verticalAlign=middle;spacingTop=-1;spacingLeft=3;spacingRight=3;rotatable=0;labelPosition=right;points=[];portConstraint=eastwest;strokeColor=inherit;rounded=0;" parent="108" vertex="1">
                    <mxGeometry y="26" width="310" height="4" as="geometry"/>
                </mxCell>
                <mxCell id="111" value="+ Login(username:String,password): InstapayAccount" style="text;strokeColor=none;fillColor=none;align=left;verticalAlign=top;spacingLeft=4;spacingRight=4;overflow=hidden;rotatable=0;points=[[0,0.5],[1,0.5]];portConstraint=eastwest;rounded=0;" parent="108" vertex="1">
                    <mxGeometry y="30" width="310" height="56" as="geometry"/>
                </mxCell>
                <mxCell id="242" value="" style="edgeStyle=orthogonalEdgeStyle;html=1;dashed=1;fontSize=9;endArrow=block;endFill=0;elbow=vertical;" parent="1" source="154" target="170" edge="1">
                    <mxGeometry relative="1" as="geometry">
                        <Array as="points">
                            <mxPoint x="520" y="780"/>
                            <mxPoint x="815" y="780"/>
                        </Array>
                    </mxGeometry>
                </mxCell>
                <mxCell id="154" value="GasBillData&#10;" style="swimlane;fontStyle=0;align=center;verticalAlign=top;childLayout=stackLayout;horizontal=1;startSize=26;horizontalStack=0;resizeParent=1;resizeParentMax=0;resizeLast=0;collapsible=1;marginBottom=0;labelBackgroundColor=none;rounded=0;" parent="1" vertex="1">
                    <mxGeometry x="400" y="810" width="230" height="160" as="geometry"/>
                </mxCell>
                <mxCell id="155" value="- billPrice: double&#10;- companyName: String&#10;- consumption: String&#10;- address: String" style="text;strokeColor=none;fillColor=none;align=left;verticalAlign=top;spacingLeft=4;spacingRight=4;overflow=hidden;rotatable=0;points=[[0,0.5],[1,0.5]];portConstraint=eastwest;labelBackgroundColor=none;rounded=0;" parent="154" vertex="1">
                    <mxGeometry y="26" width="230" height="64" as="geometry"/>
                </mxCell>
                <mxCell id="156" value="" style="line;strokeWidth=1;fillColor=none;align=left;verticalAlign=middle;spacingTop=-1;spacingLeft=3;spacingRight=3;rotatable=0;labelPosition=right;points=[];portConstraint=eastwest;strokeColor=inherit;labelBackgroundColor=#4b4949;rounded=0;" parent="154" vertex="1">
                    <mxGeometry y="90" width="230" height="8" as="geometry"/>
                </mxCell>
                <mxCell id="157" value="+ displayBill(): void&#10;+ getBillPrice():double&#10;+ setData(subscriptionId: String):void" style="text;strokeColor=none;fillColor=none;align=left;verticalAlign=top;spacingLeft=4;spacingRight=4;overflow=hidden;rotatable=0;points=[[0,0.5],[1,0.5]];portConstraint=eastwest;labelBackgroundColor=none;rounded=0;" parent="154" vertex="1">
                    <mxGeometry y="98" width="230" height="62" as="geometry"/>
                </mxCell>
                <mxCell id="241" value="" style="edgeStyle=orthogonalEdgeStyle;html=1;dashed=1;fontSize=9;endArrow=block;endFill=0;elbow=vertical;startArrow=none;" parent="1" source="253" target="170" edge="1">
                    <mxGeometry relative="1" as="geometry">
                        <Array as="points"/>
                    </mxGeometry>
                </mxCell>
                <mxCell id="162" value="ElectricityBillData&#10;" style="swimlane;fontStyle=0;align=center;verticalAlign=top;childLayout=stackLayout;horizontal=1;startSize=26;horizontalStack=0;resizeParent=1;resizeParentMax=0;resizeLast=0;collapsible=1;marginBottom=0;labelBackgroundColor=none;rounded=0;" parent="1" vertex="1">
                    <mxGeometry x="1000" y="810" width="230" height="160" as="geometry"/>
                </mxCell>
                <mxCell id="163" value="- billPrice: double&#10;- companyName: String&#10;- consumption: String&#10;- address: String" style="text;strokeColor=none;fillColor=none;align=left;verticalAlign=top;spacingLeft=4;spacingRight=4;overflow=hidden;rotatable=0;points=[[0,0.5],[1,0.5]];portConstraint=eastwest;labelBackgroundColor=none;rounded=0;" parent="162" vertex="1">
                    <mxGeometry y="26" width="230" height="64" as="geometry"/>
                </mxCell>
                <mxCell id="164" value="" style="line;strokeWidth=1;fillColor=none;align=left;verticalAlign=middle;spacingTop=-1;spacingLeft=3;spacingRight=3;rotatable=0;labelPosition=right;points=[];portConstraint=eastwest;strokeColor=inherit;labelBackgroundColor=#4b4949;rounded=0;" parent="162" vertex="1">
                    <mxGeometry y="90" width="230" height="8" as="geometry"/>
                </mxCell>
                <mxCell id="165" value="+ displayBill(): void&#10;+ getBalance():double&#10;+ setData(subscriptionId: String):void" style="text;strokeColor=none;fillColor=none;align=left;verticalAlign=top;spacingLeft=4;spacingRight=4;overflow=hidden;rotatable=0;points=[[0,0.5],[1,0.5]];portConstraint=eastwest;labelBackgroundColor=none;rounded=0;" parent="162" vertex="1">
                    <mxGeometry y="98" width="230" height="62" as="geometry"/>
                </mxCell>
                <mxCell id="170" value="&lt;p style=&quot;margin:0px;margin-top:4px;text-align:center;&quot;&gt;&lt;i&gt;&amp;lt;&amp;lt;Interface&amp;gt;&amp;gt;&lt;/i&gt;&lt;br&gt;&lt;i style=&quot;text-align: left;&quot;&gt;BillData&lt;/i&gt;&lt;br&gt;&lt;/p&gt;&lt;hr size=&quot;1&quot;&gt;&lt;p style=&quot;margin:0px;margin-left:4px;&quot;&gt;&lt;/p&gt;&lt;span style=&quot;&quot;&gt;&lt;i&gt;+ displayBill():void&lt;br&gt;+ getBillPrice():double&lt;br&gt;+ setBillData(subscriptionId: String):void&lt;/i&gt;&lt;br&gt;&lt;/span&gt;" style="verticalAlign=top;align=left;overflow=fill;fontSize=12;fontFamily=Helvetica;html=1;rounded=0;" parent="1" vertex="1">
                    <mxGeometry x="695" y="650" width="240" height="103.5" as="geometry"/>
                </mxCell>
                <mxCell id="177" value="" style="endArrow=diamondThin;endFill=0;endSize=24;html=1;rounded=0;" parent="1" edge="1">
                    <mxGeometry width="160" relative="1" as="geometry">
                        <mxPoint x="695" y="710.25" as="sourcePoint"/>
                        <mxPoint x="465" y="710" as="targetPoint"/>
                        <Array as="points">
                            <mxPoint x="555" y="710"/>
                        </Array>
                    </mxGeometry>
                </mxCell>
                <mxCell id="326" value="Contain" style="edgeLabel;html=1;align=center;verticalAlign=middle;resizable=0;points=[];" vertex="1" connectable="0" parent="177">
                    <mxGeometry x="-0.1292" y="2" relative="1" as="geometry">
                        <mxPoint x="-15" y="-10" as="offset"/>
                    </mxGeometry>
                </mxCell>
                <mxCell id="179" value="&lt;p style=&quot;margin:0px;margin-top:4px;text-align:center;&quot;&gt;Bill&lt;/p&gt;&lt;hr size=&quot;1&quot;&gt;&lt;p style=&quot;margin:0px;margin-left:4px;&quot;&gt;- data: BillData&lt;/p&gt;&lt;hr size=&quot;1&quot;&gt;&lt;p style=&quot;margin:0px;margin-left:4px;&quot;&gt;+ printBill( ): void&lt;/p&gt;&lt;p style=&quot;margin:0px;margin-left:4px;&quot;&gt;+ createBill(subscription: String):void&lt;/p&gt;&lt;p style=&quot;margin:0px;margin-left:4px;&quot;&gt;+ getBillPrice():double&lt;/p&gt;" style="verticalAlign=top;align=left;overflow=fill;fontSize=12;fontFamily=Helvetica;html=1;labelBorderColor=none;labelBackgroundColor=none;fillColor=default;fillStyle=auto;gradientColor=none;" parent="1" vertex="1">
                    <mxGeometry x="245" y="650" width="220" height="110" as="geometry"/>
                </mxCell>
                <mxCell id="188" value="Transfer" style="swimlane;fontStyle=0;align=center;verticalAlign=top;childLayout=stackLayout;horizontal=1;startSize=26;horizontalStack=0;resizeParent=1;resizeParentMax=0;resizeLast=0;collapsible=1;marginBottom=0;labelBackgroundColor=none;labelBorderColor=none;fillStyle=auto;fontColor=default;fillColor=default;gradientColor=none;" parent="1" vertex="1">
                    <mxGeometry x="-110" y="450" width="250" height="170" as="geometry"/>
                </mxCell>
                <mxCell id="189" value="- source: InstapayAccount&#10;- distination: ReceiverHandler " style="text;strokeColor=none;fillColor=none;align=left;verticalAlign=top;spacingLeft=4;spacingRight=4;overflow=hidden;rotatable=0;points=[[0,0.5],[1,0.5]];portConstraint=eastwest;labelBackgroundColor=none;labelBorderColor=none;fillStyle=auto;fontColor=default;" parent="188" vertex="1">
                    <mxGeometry y="26" width="250" height="54" as="geometry"/>
                </mxCell>
                <mxCell id="190" value="" style="line;strokeWidth=1;fillColor=none;align=left;verticalAlign=middle;spacingTop=-1;spacingLeft=3;spacingRight=3;rotatable=0;labelPosition=right;points=[];portConstraint=eastwest;strokeColor=inherit;labelBackgroundColor=none;labelBorderColor=none;fillStyle=auto;fontColor=default;" parent="188" vertex="1">
                    <mxGeometry y="80" width="250" height="20" as="geometry"/>
                </mxCell>
                <mxCell id="191" value="+ transfer(): void&#10;+setSource(user:InstapayAccount):void&#10;+setDistination(user:)" style="text;strokeColor=none;fillColor=none;align=left;verticalAlign=top;spacingLeft=4;spacingRight=4;overflow=hidden;rotatable=0;points=[[0,0.5],[1,0.5]];portConstraint=eastwest;labelBackgroundColor=none;labelBorderColor=none;fillStyle=auto;fontColor=default;" parent="188" vertex="1">
                    <mxGeometry y="100" width="250" height="70" as="geometry"/>
                </mxCell>
                <mxCell id="193" value="&lt;p style=&quot;margin:0px;margin-top:4px;text-align:center;&quot;&gt;&lt;i&gt;&amp;lt;&amp;lt;Interface&amp;gt;&amp;gt;&lt;/i&gt;&lt;br&gt;&lt;/p&gt;&lt;p style=&quot;margin:0px;margin-top:4px;text-align:center;&quot;&gt;&lt;i&gt;Recipient&lt;/i&gt;&lt;/p&gt;&lt;p style=&quot;margin:0px;margin-left:4px;&quot;&gt;&lt;br&gt;&lt;/p&gt;&lt;p style=&quot;margin:0px;margin-left:4px;&quot;&gt;+ pay( amount: double,ID:string): void&lt;/p&gt;&lt;p style=&quot;margin:0px;margin-left:4px;&quot;&gt;+ check(ID: string ): bool&lt;br&gt;&lt;br&gt;&lt;/p&gt;" style="verticalAlign=top;align=left;overflow=fill;fontSize=12;fontFamily=Helvetica;html=1;" parent="1" vertex="1">
                    <mxGeometry x="-720" y="560" width="480" height="100" as="geometry"/>
                </mxCell>
                <mxCell id="212" value="" style="edgeStyle=orthogonalEdgeStyle;html=1;elbow=vertical;endArrow=block;endFill=0;dashed=1;" parent="1" source="194" target="193" edge="1">
                    <mxGeometry relative="1" as="geometry"/>
                </mxCell>
                <mxCell id="194" value="&lt;p style=&quot;margin:0px;margin-top:4px;text-align:center;&quot;&gt;BillPayment&lt;/p&gt;&lt;hr size=&quot;1&quot;&gt;&lt;p style=&quot;margin:0px;margin-left:4px;&quot;&gt;&lt;/p&gt;&lt;p style=&quot;margin: 0px 0px 0px 4px;&quot;&gt;+ pay( amount: double,ID:sting)&lt;br&gt;&lt;/p&gt;&lt;p style=&quot;margin: 0px 0px 0px 4px;&quot;&gt;+check(ID: string ): bool&lt;/p&gt;" style="verticalAlign=top;align=left;overflow=fill;fontSize=12;fontFamily=Helvetica;html=1;" parent="1" vertex="1">
                    <mxGeometry x="-280" y="735" width="210" height="105" as="geometry"/>
                </mxCell>
                <mxCell id="207" value="" style="edgeStyle=orthogonalEdgeStyle;html=1;elbow=vertical;endArrow=block;endFill=0;dashed=1;" parent="1" source="195" target="193" edge="1">
                    <mxGeometry relative="1" as="geometry"/>
                </mxCell>
                <mxCell id="195" value="&lt;p style=&quot;margin:0px;margin-top:4px;text-align:center;&quot;&gt;BankAccount&lt;/p&gt;&lt;hr size=&quot;1&quot;&gt;&lt;p style=&quot;margin:0px;margin-left:4px;&quot;&gt;&lt;/p&gt;&lt;p style=&quot;margin: 0px 0px 0px 4px;&quot;&gt;+ pay( amount: double,ID;string)&lt;br&gt;&lt;/p&gt;&lt;p style=&quot;margin: 0px 0px 0px 4px;&quot;&gt;+check(ID: string ): bool&lt;/p&gt;" style="verticalAlign=top;align=left;overflow=fill;fontSize=12;fontFamily=Helvetica;html=1;" parent="1" vertex="1">
                    <mxGeometry x="-490" y="735" width="190" height="105" as="geometry"/>
                </mxCell>
                <mxCell id="206" value="" style="edgeStyle=orthogonalEdgeStyle;html=1;elbow=vertical;endArrow=block;endFill=0;dashed=1;" parent="1" source="196" target="193" edge="1">
                    <mxGeometry relative="1" as="geometry"/>
                </mxCell>
                <mxCell id="281" value="" style="edgeStyle=orthogonalEdgeStyle;html=1;fontSize=11;fontColor=#FFFFFF;entryX=1.012;entryY=0.619;entryDx=0;entryDy=0;entryPerimeter=0;dashed=1;dashPattern=8 8;endArrow=open;endFill=0;" parent="1" source="196" target="236" edge="1">
                    <mxGeometry relative="1" as="geometry">
                        <mxPoint x="-1011.8199999999999" y="785" as="targetPoint"/>
                        <Array as="points">
                            <mxPoint x="-810" y="567"/>
                        </Array>
                    </mxGeometry>
                </mxCell>
                <mxCell id="196" value="&lt;p style=&quot;margin:0px;margin-top:4px;text-align:center;&quot;&gt;InstapayAccountPayment&lt;/p&gt;&lt;hr size=&quot;1&quot;&gt;&lt;p style=&quot;margin:0px;margin-left:4px;&quot;&gt;&lt;/p&gt;&lt;p style=&quot;margin:0px;margin-left:4px;&quot;&gt;+ pay( amount: double,ID:string)&lt;br&gt;&lt;/p&gt;&lt;p style=&quot;margin:0px;margin-left:4px;&quot;&gt;+check(ID: string ): bool&lt;br&gt;&lt;/p&gt;" style="verticalAlign=top;align=left;overflow=fill;fontSize=12;fontFamily=Helvetica;html=1;" parent="1" vertex="1">
                    <mxGeometry x="-880" y="735" width="183.64" height="105" as="geometry"/>
                </mxCell>
                <mxCell id="210" value="" style="edgeStyle=orthogonalEdgeStyle;html=1;elbow=vertical;endArrow=block;endFill=0;dashed=1;" parent="1" source="197" target="193" edge="1">
                    <mxGeometry relative="1" as="geometry"/>
                </mxCell>
                <mxCell id="197" value="&lt;p style=&quot;margin:0px;margin-top:4px;text-align:center;&quot;&gt;WalletAccount&lt;/p&gt;&lt;hr size=&quot;1&quot;&gt;&lt;p style=&quot;margin:0px;margin-left:4px;&quot;&gt;+ pay( amount: double,ID:string)&lt;/p&gt;&lt;p style=&quot;margin:0px;margin-left:4px;&quot;&gt;+check(ID: string ): bool&lt;br&gt;&lt;/p&gt;" style="verticalAlign=top;align=left;overflow=fill;fontSize=12;fontFamily=Helvetica;html=1;" parent="1" vertex="1">
                    <mxGeometry x="-680.02" y="735" width="178.64" height="105" as="geometry"/>
                </mxCell>
                <mxCell id="213" value="&lt;span style=&quot;color: rgb(240, 240, 240); font-family: Helvetica; font-size: 11px; font-style: normal; font-variant-ligatures: normal; font-variant-caps: normal; font-weight: 400; letter-spacing: normal; orphans: 2; text-align: center; text-indent: 0px; text-transform: none; widows: 2; word-spacing: 0px; -webkit-text-stroke-width: 0px; text-decoration-thickness: initial; text-decoration-style: initial; text-decoration-color: initial; float: none; display: inline !important;&quot;&gt;Implements&lt;/span&gt;" style="text;whiteSpace=wrap;html=1;" parent="1" vertex="1">
                    <mxGeometry x="-510" y="670" width="60" height="30" as="geometry"/>
                </mxCell>
                <mxCell id="214" value="" style="endArrow=diamondThin;endFill=0;endSize=24;html=1;exitX=0.523;exitY=-0.017;exitDx=0;exitDy=0;exitPerimeter=0;entryX=0.004;entryY=0.742;entryDx=0;entryDy=0;entryPerimeter=0;edgeStyle=orthogonalEdgeStyle;" parent="1" source="193" target="189" edge="1">
                    <mxGeometry width="160" relative="1" as="geometry">
                        <mxPoint x="-580" y="780" as="sourcePoint"/>
                        <mxPoint x="-140" y="530" as="targetPoint"/>
                    </mxGeometry>
                </mxCell>
                <mxCell id="305" value="1" style="edgeLabel;html=1;align=center;verticalAlign=middle;resizable=0;points=[];fontSize=11;fontColor=#FFFFFF;" parent="214" vertex="1" connectable="0">
                    <mxGeometry x="-0.8349" y="-1" relative="1" as="geometry">
                        <mxPoint x="-12" y="25" as="offset"/>
                    </mxGeometry>
                </mxCell>
                <mxCell id="331" value="To" style="edgeLabel;html=1;align=center;verticalAlign=middle;resizable=0;points=[];" vertex="1" connectable="0" parent="214">
                    <mxGeometry x="0.0697" y="1" relative="1" as="geometry">
                        <mxPoint as="offset"/>
                    </mxGeometry>
                </mxCell>
                <mxCell id="295" value="" style="edgeStyle=orthogonalEdgeStyle;html=1;fontSize=11;fontColor=#FFFFFF;entryX=0.5;entryY=0;entryDx=0;entryDy=0;endArrow=open;endFill=0;dashed=1;dashPattern=8 8;" parent="1" source="219" target="70" edge="1">
                    <mxGeometry relative="1" as="geometry">
                        <mxPoint x="-375" y="-30.000000000000227" as="targetPoint"/>
                        <Array as="points">
                            <mxPoint x="-631" y="-120"/>
                        </Array>
                    </mxGeometry>
                </mxCell>
                <mxCell id="300" value="" style="edgeStyle=orthogonalEdgeStyle;html=1;fontSize=11;fontColor=#FFFFFF;entryX=0.5;entryY=0;entryDx=0;entryDy=0;endArrow=open;endFill=0;dashed=1;dashPattern=8 8;" parent="1" source="219" target="16" edge="1">
                    <mxGeometry relative="1" as="geometry">
                        <mxPoint x="-105" y="-140" as="targetPoint"/>
                        <Array as="points">
                            <mxPoint x="55" y="-130"/>
                        </Array>
                    </mxGeometry>
                </mxCell>
                <mxCell id="302" value="" style="edgeStyle=orthogonalEdgeStyle;html=1;fontSize=11;fontColor=#FFFFFF;entryX=-0.001;entryY=0.308;entryDx=0;entryDy=0;entryPerimeter=0;endArrow=open;endFill=0;dashed=1;" parent="1" source="219" target="189" edge="1">
                    <mxGeometry relative="1" as="geometry">
                        <mxPoint x="-375" y="440" as="targetPoint"/>
                    </mxGeometry>
                </mxCell>
                <mxCell id="219" value="System" style="swimlane;fontStyle=0;align=center;verticalAlign=top;childLayout=stackLayout;horizontal=1;startSize=26;horizontalStack=0;resizeParent=1;resizeParentMax=0;resizeLast=0;collapsible=1;marginBottom=0;" parent="1" vertex="1">
                    <mxGeometry x="-490" y="-170" width="230" height="60" as="geometry"/>
                </mxCell>
                <mxCell id="221" value="" style="line;strokeWidth=1;fillColor=none;align=left;verticalAlign=middle;spacingTop=-1;spacingLeft=3;spacingRight=3;rotatable=0;labelPosition=right;points=[];portConstraint=eastwest;strokeColor=inherit;" parent="219" vertex="1">
                    <mxGeometry y="26" width="230" height="8" as="geometry"/>
                </mxCell>
                <mxCell id="222" value="+ Run():void" style="text;strokeColor=none;fillColor=none;align=left;verticalAlign=top;spacingLeft=4;spacingRight=4;overflow=hidden;rotatable=0;points=[[0,0.5],[1,0.5]];portConstraint=eastwest;" parent="219" vertex="1">
                    <mxGeometry y="34" width="230" height="26" as="geometry"/>
                </mxCell>
                <mxCell id="233" value="InstapayAccountDB" style="swimlane;fontStyle=0;align=center;verticalAlign=top;childLayout=stackLayout;horizontal=1;startSize=26;horizontalStack=0;resizeParent=1;resizeParentMax=0;resizeLast=0;collapsible=1;marginBottom=0;" parent="1" vertex="1">
                    <mxGeometry x="-1310" y="480" width="320" height="120" as="geometry"/>
                </mxCell>
                <mxCell id="235" value="" style="line;strokeWidth=1;fillColor=none;align=left;verticalAlign=middle;spacingTop=-1;spacingLeft=3;spacingRight=3;rotatable=0;labelPosition=right;points=[];portConstraint=eastwest;strokeColor=inherit;" parent="233" vertex="1">
                    <mxGeometry y="26" width="320" height="8" as="geometry"/>
                </mxCell>
                <mxCell id="236" value="+ checkIfUsernameExist(username:string):bool&#10;+save(user:InstapayAccount):bool&#10;+load(username:string,password:string):InstapayAccount" style="text;strokeColor=none;fillColor=none;align=left;verticalAlign=top;spacingLeft=4;spacingRight=4;overflow=hidden;rotatable=0;points=[[0,0.5],[1,0.5]];portConstraint=eastwest;" parent="233" vertex="1">
                    <mxGeometry y="34" width="320" height="86" as="geometry"/>
                </mxCell>
                <mxCell id="247" value="" style="edgeStyle=orthogonalEdgeStyle;html=1;dashed=1;fontSize=9;endArrow=block;endFill=0;elbow=vertical;" parent="1" source="158" target="170" edge="1">
                    <mxGeometry relative="1" as="geometry"/>
                </mxCell>
                <mxCell id="158" value="WaterBillData&#10;&#10;" style="swimlane;fontStyle=0;align=center;verticalAlign=top;childLayout=stackLayout;horizontal=1;startSize=26;horizontalStack=0;resizeParent=1;resizeParentMax=0;resizeLast=0;collapsible=1;marginBottom=0;labelBackgroundColor=none;rounded=0;" parent="1" vertex="1">
                    <mxGeometry x="700" y="810" width="230" height="160" as="geometry"/>
                </mxCell>
                <mxCell id="159" value="- billPrice: double&#10;- companyName: String&#10;- consumption: String&#10;- address: String" style="text;strokeColor=none;fillColor=none;align=left;verticalAlign=top;spacingLeft=4;spacingRight=4;overflow=hidden;rotatable=0;points=[[0,0.5],[1,0.5]];portConstraint=eastwest;labelBackgroundColor=none;rounded=0;" parent="158" vertex="1">
                    <mxGeometry y="26" width="230" height="64" as="geometry"/>
                </mxCell>
                <mxCell id="160" value="" style="line;strokeWidth=1;fillColor=none;align=left;verticalAlign=middle;spacingTop=-1;spacingLeft=3;spacingRight=3;rotatable=0;labelPosition=right;points=[];portConstraint=eastwest;strokeColor=inherit;labelBackgroundColor=#4b4949;rounded=0;" parent="158" vertex="1">
                    <mxGeometry y="90" width="230" height="8" as="geometry"/>
                </mxCell>
                <mxCell id="161" value="+ displayBill(): void&#10;+ getBillPrice():double&#10;+ setData(subscriptionId: String):void" style="text;strokeColor=none;fillColor=none;align=left;verticalAlign=top;spacingLeft=4;spacingRight=4;overflow=hidden;rotatable=0;points=[[0,0.5],[1,0.5]];portConstraint=eastwest;labelBackgroundColor=none;rounded=0;" parent="158" vertex="1">
                    <mxGeometry y="98" width="230" height="62" as="geometry"/>
                </mxCell>
                <mxCell id="255" value="" style="edgeStyle=orthogonalEdgeStyle;html=1;dashed=1;fontSize=9;endArrow=none;endFill=0;elbow=vertical;" parent="1" source="162" target="253" edge="1">
                    <mxGeometry relative="1" as="geometry">
                        <Array as="points">
                            <mxPoint x="1130" y="780"/>
                            <mxPoint x="815" y="780"/>
                        </Array>
                        <mxPoint x="1130.0000000000005" y="810" as="sourcePoint"/>
                        <mxPoint x="815.0303030303035" y="753.5" as="targetPoint"/>
                    </mxGeometry>
                </mxCell>
                <mxCell id="253" value="&lt;span style=&quot;color: rgb(240, 240, 240); font-family: Helvetica; font-size: 12px; font-style: normal; font-variant-ligatures: normal; font-variant-caps: normal; font-weight: 400; letter-spacing: normal; orphans: 2; text-align: center; text-indent: 0px; text-transform: none; widows: 2; word-spacing: 0px; -webkit-text-stroke-width: 0px; text-decoration-thickness: initial; text-decoration-style: initial; text-decoration-color: initial; float: none; display: inline !important;&quot;&gt;Implements&lt;/span&gt;" style="text;whiteSpace=wrap;html=1;fontSize=12;" parent="1" vertex="1">
                    <mxGeometry x="790" y="760" width="40" height="10" as="geometry"/>
                </mxCell>
                <mxCell id="258" value="" style="endArrow=diamondThin;endFill=0;endSize=24;html=1;rounded=0;exitX=-0.002;exitY=0.944;exitDx=0;exitDy=0;exitPerimeter=0;entryX=-0.002;entryY=0.944;entryDx=0;entryDy=0;entryPerimeter=0;" parent="1" edge="1" target="71">
                    <mxGeometry width="160" relative="1" as="geometry">
                        <mxPoint x="-970" y="133" as="sourcePoint"/>
                        <mxPoint x="-770.7" y="202" as="targetPoint"/>
                    </mxGeometry>
                </mxCell>
                <mxCell id="320" value="Handle" style="edgeLabel;html=1;align=center;verticalAlign=middle;resizable=0;points=[];" vertex="1" connectable="0" parent="258">
                    <mxGeometry x="0.2206" y="-3" relative="1" as="geometry">
                        <mxPoint x="-7" y="-2" as="offset"/>
                    </mxGeometry>
                </mxCell>
                <mxCell id="276" value="" style="endArrow=diamondThin;endFill=0;endSize=24;html=1;rounded=0;exitX=0.385;exitY=1.033;exitDx=0;exitDy=0;exitPerimeter=0;entryX=0.545;entryY=-0.009;entryDx=0;entryDy=0;entryPerimeter=0;" parent="1" source="19" target="188" edge="1">
                    <mxGeometry width="160" relative="1" as="geometry">
                        <mxPoint x="180.00000000000023" y="323.9999999999998" as="sourcePoint"/>
                        <mxPoint x="-20.25999999999999" y="320" as="targetPoint"/>
                    </mxGeometry>
                </mxCell>
                <mxCell id="306" value="1" style="edgeLabel;html=1;align=center;verticalAlign=middle;resizable=0;points=[];fontSize=11;fontColor=#FFFFFF;" parent="276" vertex="1" connectable="0">
                    <mxGeometry x="0.5444" y="3" relative="1" as="geometry">
                        <mxPoint x="1" y="-159" as="offset"/>
                    </mxGeometry>
                </mxCell>
                <mxCell id="318" value="Use" style="edgeLabel;html=1;align=center;verticalAlign=middle;resizable=0;points=[];" vertex="1" connectable="0" parent="276">
                    <mxGeometry x="-0.2342" y="5" relative="1" as="geometry">
                        <mxPoint x="-1" y="-4" as="offset"/>
                    </mxGeometry>
                </mxCell>
                <mxCell id="283" value="" style="edgeStyle=orthogonalEdgeStyle;html=1;fontSize=11;fontColor=#FFFFFF;entryX=0;entryY=0.5;entryDx=0;entryDy=0;exitX=1;exitY=0.5;exitDx=0;exitDy=0;endArrow=open;endFill=0;dashed=1;dashPattern=8 8;" parent="1" source="194" target="179" edge="1">
                    <mxGeometry relative="1" as="geometry">
                        <mxPoint x="60.00000000000023" y="810.0339999999999" as="targetPoint"/>
                        <Array as="points">
                            <mxPoint x="80" y="788"/>
                            <mxPoint x="80" y="705"/>
                        </Array>
                        <mxPoint x="236.16000000000008" y="977.8" as="sourcePoint"/>
                    </mxGeometry>
                </mxCell>
                <mxCell id="296" value="" style="edgeStyle=orthogonalEdgeStyle;html=1;fontSize=11;fontColor=#FFFFFF;entryX=0.524;entryY=0.007;entryDx=0;entryDy=0;entryPerimeter=0;exitX=0.003;exitY=0.157;exitDx=0;exitDy=0;exitPerimeter=0;dashed=1;dashPattern=8 8;endArrow=open;endFill=0;" parent="1" source="221" target="108" edge="1">
                    <mxGeometry relative="1" as="geometry">
                        <mxPoint x="-490" y="-130" as="sourcePoint"/>
                        <mxPoint x="-1545" y="146" as="targetPoint"/>
                        <Array as="points">
                            <mxPoint x="-1568" y="-143"/>
                        </Array>
                    </mxGeometry>
                </mxCell>
                <mxCell id="310" value="1" style="edgeLabel;html=1;align=center;verticalAlign=middle;resizable=0;points=[];fontSize=11;fontColor=#FFFFFF;" connectable="0" vertex="1" parent="1">
                    <mxGeometry x="-730" y="300.00118518518536" as="geometry">
                        <mxPoint x="-225" y="-154" as="offset"/>
                    </mxGeometry>
                </mxCell>
                <mxCell id="315" value="1" style="text;html=1;strokeColor=none;fillColor=none;align=center;verticalAlign=middle;whiteSpace=wrap;rounded=0;" vertex="1" parent="1">
                    <mxGeometry x="450" y="114" width="15" height="20" as="geometry"/>
                </mxCell>
                <mxCell id="316" value="1" style="text;html=1;strokeColor=none;fillColor=none;align=center;verticalAlign=middle;whiteSpace=wrap;rounded=0;" vertex="1" parent="1">
                    <mxGeometry x="670" y="680" width="20" height="30" as="geometry"/>
                </mxCell>
                <mxCell id="340" value="Registration" style="text;html=1;align=center;verticalAlign=middle;resizable=0;points=[];autosize=1;strokeColor=none;fillColor=none;fontSize=15;" vertex="1" parent="1">
                    <mxGeometry x="-1760" y="-90.5" width="110" height="30" as="geometry"/>
                </mxCell>
                <mxCell id="341" value="" style="shape=folder;fontStyle=1;tabWidth=850;tabHeight=30;tabPosition=left;html=1;boundedLbl=1;fillColor=none;" vertex="1" parent="1">
                    <mxGeometry x="-910" y="390" width="1080" height="470" as="geometry"/>
                </mxCell>
                <mxCell id="342" value="TransactionProsseccing" style="text;html=1;align=center;verticalAlign=middle;resizable=0;points=[];autosize=1;strokeColor=none;fillColor=none;fontSize=16;" vertex="1" parent="1">
                    <mxGeometry x="-910" y="390" width="190" height="30" as="geometry"/>
                </mxCell>
                <mxCell id="343" value="" style="shape=folder;fontStyle=1;tabWidth=1200;tabHeight=30;tabPosition=left;html=1;boundedLbl=1;fillColor=none;" vertex="1" parent="1">
                    <mxGeometry x="210" y="590" width="1040" height="400" as="geometry"/>
                </mxCell>
                <mxCell id="346" value="Bill" style="text;html=1;align=center;verticalAlign=middle;resizable=0;points=[];autosize=1;strokeColor=none;fillColor=none;fontSize=16;" vertex="1" parent="1">
                    <mxGeometry x="210" y="590" width="40" height="30" as="geometry"/>
                </mxCell>
                <mxCell id="348" value="" style="shape=folder;fontStyle=1;tabWidth=890;tabHeight=30;tabPosition=left;html=1;boundedLbl=1;fillColor=none;" vertex="1" parent="1">
                    <mxGeometry x="-1350" y="425" width="390" height="205" as="geometry"/>
                </mxCell>
                <mxCell id="349" value="ApplicationDB" style="text;html=1;align=center;verticalAlign=middle;resizable=0;points=[];autosize=1;strokeColor=none;fillColor=none;fontSize=16;" vertex="1" parent="1">
                    <mxGeometry x="-1350" y="425" width="120" height="30" as="geometry"/>
                </mxCell>
                <mxCell id="354" value="" style="shape=folder;fontStyle=1;tabWidth=1200;tabHeight=30;tabPosition=left;html=1;boundedLbl=1;fillColor=none;" vertex="1" parent="1">
                    <mxGeometry x="-90" y="-134" width="900" height="504" as="geometry"/>
                </mxCell>
                <mxCell id="368" value="&lt;font style=&quot;font-size: 12px;&quot;&gt;Implements&lt;/font&gt;" style="text;html=1;align=center;verticalAlign=middle;resizable=0;points=[];autosize=1;strokeColor=none;fillColor=none;fontSize=16;" vertex="1" parent="1">
                    <mxGeometry x="500" y="172.75" width="90" height="30" as="geometry"/>
                </mxCell>
                <mxCell id="371" value="" style="shape=folder;fontStyle=1;tabWidth=1200;tabHeight=30;tabPosition=left;html=1;boundedLbl=1;fillColor=none;" vertex="1" parent="1">
                    <mxGeometry x="-510" y="-220.5" width="340" height="130" as="geometry"/>
                </mxCell>
                <mxCell id="372" value="&lt;font style=&quot;font-size: 16px;&quot;&gt;App&lt;/font&gt;" style="text;html=1;align=center;verticalAlign=middle;resizable=0;points=[];autosize=1;strokeColor=none;fillColor=none;fontSize=12;" vertex="1" parent="1">
                    <mxGeometry x="-510" y="-220.5" width="50" height="30" as="geometry"/>
                </mxCell>
                <mxCell id="373" value="1" style="edgeLabel;html=1;align=center;verticalAlign=middle;resizable=0;points=[];fontSize=11;fontColor=#FFFFFF;" vertex="1" connectable="0" parent="1">
                    <mxGeometry x="290.00000000000045" y="29.99933333333294" as="geometry">
                        <mxPoint x="97" y="-6" as="offset"/>
                    </mxGeometry>
                </mxCell>
                <mxCell id="375" value="Account" style="text;html=1;align=center;verticalAlign=middle;resizable=0;points=[];autosize=1;strokeColor=none;fillColor=none;fontSize=16;" vertex="1" parent="1">
                    <mxGeometry x="-90" y="-134" width="80" height="30" as="geometry"/>
                </mxCell>
                <mxCell id="380" value="Implement" style="text;html=1;align=center;verticalAlign=middle;resizable=0;points=[];autosize=1;strokeColor=none;fillColor=none;fontSize=12;labelBackgroundColor=none;" vertex="1" parent="1">
                    <mxGeometry x="-1133.9" y="190" width="80" height="30" as="geometry"/>
                </mxCell>
                <mxCell id="382" value="" style="shape=folder;fontStyle=1;tabWidth=850;tabHeight=30;tabPosition=left;html=1;boundedLbl=1;fillColor=none;" vertex="1" parent="1">
                    <mxGeometry x="-1760" y="-90.5" width="1380" height="460.5" as="geometry"/>
                </mxCell>
            </root>
        </mxGraphModel>
    </diagram>
</mxfile>